<?xml version="1.0" encoding="UTF-8" standalone="no"?>
<svg
   xmlns:dc="http://purl.org/dc/elements/1.1/"
   xmlns:cc="http://creativecommons.org/ns#"
   xmlns:rdf="http://www.w3.org/1999/02/22-rdf-syntax-ns#"
   xmlns:svg="http://www.w3.org/2000/svg"
   xmlns="http://www.w3.org/2000/svg"
   id="svg4136"
   viewBox="0 0 512 512"
   height="512"
   width="512"
   version="1.1">
  <defs
     id="defs4143" />
  <path
     id="path4139"
     d="M 315.13086 31.304688 C 309.17099 31.304688 304.06837 33.348588 299.82422 37.435547 C 295.58007 41.5225 293.45898 46.434698 293.45898 52.173828 L 293.45898 64.695312 L 276.12109 64.695312 C 271.42545 64.695312 267.36113 66.347997 263.92969 69.652344 C 260.49825 72.956691 258.7832 76.868887 258.7832 81.390625 L 258.7832 248.34766 C 258.7832 252.8694 260.49825 256.78354 263.92969 260.08789 C 267.36113 263.39224 271.42545 265.04297 276.12109 265.04297 L 466.83594 265.04297 C 471.53159 265.04297 475.5959 263.39224 479.02734 260.08789 C 482.45878 256.78354 484.17383 252.8694 484.17383 248.34766 L 484.17383 81.390625 C 484.17383 76.868887 482.45878 72.956691 479.02734 69.652344 C 475.5959 66.347997 471.53159 64.695312 466.83594 64.695312 L 449.49805 64.695312 L 449.49805 52.173828 C 449.49805 46.434698 447.37697 41.5225 443.13281 37.435547 C 438.88867 33.348588 433.78604 31.304688 427.82617 31.304688 L 419.15625 31.304688 C 413.19639 31.304688 408.09572 33.348588 403.85156 37.435547 C 399.60742 41.5225 397.48438 46.434698 397.48438 52.173828 L 397.48438 64.695312 L 345.4707 64.695312 L 345.4707 52.173828 C 345.4707 46.434698 343.34962 41.5225 339.10547 37.435547 C 334.86132 33.348588 329.75869 31.304688 323.79883 31.304688 L 315.13086 31.304688 z M 96 32 C 64 32 0 128 0 128 C 0 192 65.75 321.75 128 384 C 190.25 446.25 320 512 384 512 C 384 512 480 448 480 416 C 480 384 384 288 352 320 C 320 352 320 384 288 384 C 256 384 224 352 192 320 C 160 288 128 256 128 224 C 128 192 160 192 192 160 C 224 128 128 32 96 32 z M 315.13086 48 L 323.79883 48 C 324.97274 48 325.9898 48.41219 326.84766 49.238281 C 327.70552 50.064367 328.13281 51.043395 328.13281 52.173828 L 328.13281 89.738281 C 328.13281 90.868714 327.70552 91.847743 326.84766 92.673828 C 325.9898 93.499919 324.97274 93.912109 323.79883 93.912109 L 315.13086 93.912109 C 313.95695 93.912109 312.93989 93.499919 312.08203 92.673828 C 311.22417 91.847743 310.79688 90.868714 310.79688 89.738281 L 310.79688 52.173828 C 310.79688 51.043395 311.22417 50.064367 312.08203 49.238281 C 312.93989 48.41219 313.95695 48 315.13086 48 z M 419.15625 48 L 427.82617 48 C 429.00009 48 430.01519 48.41219 430.87305 49.238281 C 431.7309 50.064367 432.16016 51.043395 432.16016 52.173828 L 432.16016 89.738281 C 432.16016 90.868714 431.7309 91.847743 430.87305 92.673828 C 430.01519 93.499919 429.00009 93.912109 427.82617 93.912109 L 419.15625 93.912109 C 417.98234 93.912109 416.96723 93.499919 416.10938 92.673828 C 415.25151 91.847743 414.82227 90.868714 414.82227 89.738281 L 414.82227 52.173828 C 414.82227 51.043395 415.25152 50.064367 416.10938 49.238281 C 416.96723 48.41219 417.98234 48 419.15625 48 z M 276.12109 114.7832 L 315.13086 114.7832 L 315.13086 152.34766 L 276.12109 152.34766 L 276.12109 114.7832 z M 323.79883 114.7832 L 367.14453 114.7832 L 367.14453 152.34766 L 323.79883 152.34766 L 323.79883 114.7832 z M 375.8125 114.7832 L 419.15625 114.7832 L 419.15625 152.34766 L 375.8125 152.34766 L 375.8125 114.7832 z M 427.82617 114.7832 L 466.83594 114.7832 L 466.83594 152.34766 L 427.82617 152.34766 L 427.82617 114.7832 z M 276.12109 160.69531 L 315.13086 160.69531 L 315.13086 202.43555 L 276.12109 202.43555 L 276.12109 160.69531 z M 323.79883 160.69531 L 367.14453 160.69531 L 367.14453 202.43555 L 323.79883 202.43555 L 323.79883 160.69531 z M 375.8125 160.69531 L 419.15625 160.69531 L 419.15625 202.43555 L 375.8125 202.43555 L 375.8125 160.69531 z M 427.82617 160.69531 L 466.83594 160.69531 L 466.83594 202.43555 L 427.82617 202.43555 L 427.82617 160.69531 z M 276.12109 210.7832 L 315.13086 210.7832 L 315.13086 248.34766 L 276.12109 248.34766 L 276.12109 210.7832 z M 323.79883 210.7832 L 367.14453 210.7832 L 367.14453 248.34766 L 323.79883 248.34766 L 323.79883 210.7832 z M 375.8125 210.7832 L 419.15625 210.7832 L 419.15625 248.34766 L 375.8125 248.34766 L 375.8125 210.7832 z M 427.82617 210.7832 L 466.83594 210.7832 L 466.83594 248.34766 L 427.82617 248.34766 L 427.82617 210.7832 z " />
  <metadata
     id="metadata4801">
    <rdf:RDF>
      <cc:Work
         rdf:about="">
        <dc:title></dc:title>
      </cc:Work>
    </rdf:RDF>
  </metadata>
</svg>
