<?xml version="1.0" encoding="UTF-8" standalone="no"?>
<svg
   xmlns:dc="http://purl.org/dc/elements/1.1/"
   xmlns:cc="http://creativecommons.org/ns#"
   xmlns:rdf="http://www.w3.org/1999/02/22-rdf-syntax-ns#"
   xmlns:svg="http://www.w3.org/2000/svg"
   xmlns="http://www.w3.org/2000/svg"
   xmlns:sodipodi="http://sodipodi.sourceforge.net/DTD/sodipodi-0.dtd"
   xmlns:inkscape="http://www.inkscape.org/namespaces/inkscape"
   id="svg4136"
   viewBox="0 0 512 512"
   height="512"
   width="512"
   version="1.1"
   inkscape:version="0.91 r13725"
   sodipodi:docname="clear-chat5.svg">
  <sodipodi:namedview
     pagecolor="#ffffff"
     bordercolor="#666666"
     borderopacity="1"
     objecttolerance="10"
     gridtolerance="10"
     guidetolerance="10"
     inkscape:pageopacity="0"
     inkscape:pageshadow="2"
     inkscape:window-width="1920"
     inkscape:window-height="1137"
     id="namedview6"
     showgrid="false"
     inkscape:zoom="0.4609375"
     inkscape:cx="-3.2542373"
     inkscape:cy="256"
     inkscape:window-x="-8"
     inkscape:window-y="-8"
     inkscape:window-maximized="1"
     inkscape:current-layer="svg4136" />
  <defs
     id="defs4143" />
  <metadata
     id="metadata4801">
    <rdf:RDF>
      <cc:Work
         rdf:about="">
        <dc:title></dc:title>
        <dc:format>image/svg+xml</dc:format>
        <dc:type
           rdf:resource="http://purl.org/dc/dcmitype/StillImage" />
      </cc:Work>
    </rdf:RDF>
  </metadata>
  <g
     id="g5565">
    <path
       inkscape:connector-curvature="0"
       d="m 474.5775,428.88475 c 24.39304,-26.05013 39.02886,-58.73293 39.02886,-94.39563 0,-76.90076 -67.85697,-140.43997 -156.29278,-151.78281 C 329.37247,127.33777 263.73305,88.406781 187.1833,88.406781 85.264776,88.406781 2.6832943,157.23293 2.6832943,242.20824 c 0,35.56659 14.6358107,68.24939 39.0288437,94.39564 -13.5714,29.51065 -33.0858147,52.38863 -33.4406199,52.77314 -5.5882238,6.4404 -7.1848617,15.86075 -3.9028831,24.03145 3.1932634,8.17071 10.644225,13.45764 18.804809,13.45764 47.455513,0 85.774736,-19.41743 111.054806,-37.29686 8.16057,2.01865 16.58725,3.55667 25.19135,4.71017 27.8524,55.17628 93.2257,94.01115 169.68676,94.01115 18.44999,0 36.19038,-2.30703 53.04374,-6.53657 25.28007,17.7833 63.51059,37.29684 111.0548,37.29684 8.1606,0 15.52285,-5.28692 18.80482,-13.45762 3.19328,-8.1707 1.68535,-17.59103 -3.90289,-24.03147 -0.3548,-0.28838 -19.95792,-23.16635 -33.52933,-52.677 z m -348.42115,-88.72422 -15.16802,10.66999 c -12.506957,8.74746 -25.28003,15.66853 -38.230518,20.57094 2.394945,-4.51792 4.789901,-9.32422 7.096142,-14.22663 L 93.602746,327.27967 71.604686,303.72882 C 59.629913,290.84795 45.260218,269.79637 45.260218,242.20824 c 0,-58.34845 65.018502,-107.66102 141.923082,-107.66102 76.90456,0 141.92306,49.31257 141.92306,107.66102 0,58.34842 -65.0185,107.66101 -141.92306,107.66101 -14.63583,0 -29.27164,-1.82639 -43.46394,-5.38305 l -17.56301,-4.32567 z m 318.52861,55.84916 -21.90937,23.45473 13.7488,29.89516 c 2.30625,4.90241 4.70121,9.70871 7.09615,14.22662 -12.95048,-4.90242 -25.72356,-11.82347 -38.23053,-20.57093 l -15.16802,-10.66998 -17.65168,4.42179 c -14.19232,3.55666 -28.82812,5.38305 -43.46395,5.38305 -47.89904,0 -90.65336,-19.32131 -116.46562,-47.77458 89.85505,-10.3816 159.04254,-74.40145 159.04254,-152.16731 0,-3.26829 -0.35481,-6.44043 -0.62091,-9.6126 57.12402,13.93825 99.96705,54.59951 99.96705,101.89348 0,27.58812 -14.3697,48.6397 -26.34446,61.52057 z"
       id="path4684" />
    <path
       inkscape:connector-curvature="0"
       d="m 442.81418,83.525417 37.77681,-37.77681 c 4.63575,-4.635744 4.63575,-12.151848 0,-16.791373 l -8.39569,-8.395681 c -4.63574,-4.635755 -12.15185,-4.635755 -16.79137,0 L 417.62712,58.338351 379.8503,20.561553 c -4.63574,-4.635755 -12.15185,-4.635755 -16.79137,0 l -8.39568,8.395681 c -4.63576,4.635742 -4.63576,12.151847 0,16.791373 l 37.7768,37.77681 -37.7768,37.776813 c -4.63576,4.63574 -4.63576,12.15186 0,16.79139 l 8.39568,8.39567 c 4.63573,4.63575 12.15563,4.63575 16.79137,0 l 37.77682,-37.77681 37.77681,37.77681 c 4.63576,4.63575 12.15563,4.63575 16.79137,0 l 8.39569,-8.39567 c 4.63575,-4.63577 4.63575,-12.15187 0,-16.79139 L 442.81418,83.525417 Z"
       id="path5511" />
  </g>
</svg>
