<?xml version="1.0" encoding="utf-8"?>
<!-- Generated by IcoMoon.io -->
<!DOCTYPE svg PUBLIC "-//W3C//DTD SVG 1.1//EN" "http://www.w3.org/Graphics/SVG/1.1/DTD/svg11.dtd">
<svg version="1.1" xmlns="http://www.w3.org/2000/svg" xmlns:xlink="http://www.w3.org/1999/xlink" width="1024" height="1024" viewBox="0 0 1024 1024"><g id="icomoon-ignore">
</g>
<path fill="rgb(0, 0, 0)" d="M192.512 63.488c-64.512 0-192.512 192.512-192.512 192.512 0 128 131.072 387.072 256 512s384 256 512 256c0 0 192.512-128 192.512-192.512 0-63.488-192.512-256-256-191.488-64.512 63.488-64.512 128-128 128-64.512 0-128-64.512-192.512-128-63.488-64.512-128-128-128-192.512 0-63.488 64.512-63.488 128-128 64.512-63.488-128-256-191.488-256zM515.072 124.928v84.992l107.52 106.496-107.52 107.52v84.992h84.992l107.52-107.52 106.496 107.52h84.992v-84.992l-107.52-107.52 107.52-106.496v-84.992h-84.992l-106.496 107.52-107.52-107.52h-84.992z"></path>
</svg>
