<?xml version="1.0" encoding="utf-8"?>
<!-- Generated by IcoMoon.io -->
<!DOCTYPE svg PUBLIC "-//W3C//DTD SVG 1.1//EN" "http://www.w3.org/Graphics/SVG/1.1/DTD/svg11.dtd">
<svg version="1.1" xmlns="http://www.w3.org/2000/svg" xmlns:xlink="http://www.w3.org/1999/xlink" width="1024" height="1024" viewBox="0 0 1024 1024"><g id="icomoon-ignore">
</g>
<path fill="rgb(0, 0, 0)" d="M183.296 0c-40.96 0-74.752 14.336-103.424 43.008s-43.008 62.464-43.008 103.424c0 39.936 14.336 74.752 43.008 103.424s62.464 43.008 103.424 43.008c39.936 0 74.752-14.336 103.424-43.008s41.984-63.488 41.984-103.424c0-40.96-13.312-74.752-41.984-103.424s-63.488-43.008-103.424-43.008zM840.704 0c-39.936 0-74.752 14.336-103.424 43.008-27.648 28.672-41.984 62.464-41.984 103.424 0 39.936 14.336 74.752 41.984 103.424 28.672 28.672 63.488 43.008 103.424 43.008 40.96 0 75.776-14.336 103.424-43.008 28.672-28.672 43.008-63.488 43.008-103.424 0-40.96-14.336-74.752-43.008-103.424-27.648-28.672-62.464-43.008-103.424-43.008zM512 146.432c-60.416 0-112.64 21.504-154.624 64.512-43.008 41.984-64.512 94.208-64.512 154.624s21.504 112.64 64.512 155.648c41.984 41.984 94.208 63.488 154.624 63.488s112.64-21.504 155.648-63.488c41.984-43.008 63.488-95.232 63.488-155.648s-21.504-112.64-63.488-154.624c-43.008-43.008-95.232-64.512-155.648-64.512zM34.816 292.864c-48.128 0-71.68 66.56-71.68 201.728 0 29.696 11.264 52.224 31.744 67.584 21.504 15.36 48.128 22.528 79.872 22.528h75.776c39.936-46.080 90.112-70.656 151.552-72.704-30.72-45.056-46.080-93.184-46.080-146.432 0-11.264 1.024-23.552 3.072-37.888-25.6 9.216-50.176 13.312-75.776 13.312-22.528 0-45.056-4.096-68.608-12.288-22.528-8.192-40.96-16.384-55.296-24.576-14.336-7.168-22.528-11.264-24.576-11.264zM990.208 292.864c-3.072 0-11.264 4.096-25.6 11.264-14.336 8.192-32.768 16.384-55.296 24.576s-46.080 12.288-68.608 12.288c-24.576 0-50.176-4.096-75.776-13.312 2.048 14.336 3.072 26.624 3.072 37.888 0 53.248-15.36 101.376-46.080 146.432 61.44 2.048 111.616 26.624 151.552 72.704h76.8c30.72 0 57.344-7.168 78.848-22.528 20.48-15.36 31.744-37.888 31.744-67.584 0-135.168-23.552-201.728-70.656-201.728zM307.2 548.864c-22.528 0-44.032 3.072-63.488 11.264-19.456 7.168-35.84 17.408-49.152 30.72-13.312 12.288-24.576 27.648-34.816 46.080s-18.432 36.864-24.576 55.296c-6.144 19.456-11.264 39.936-15.36 62.464s-7.168 43.008-8.192 62.464c-1.024 18.432-2.048 38.912-2.048 59.392 0 45.056 14.336 80.896 41.984 107.52s64.512 39.936 110.592 39.936h499.712c46.080 0 82.944-13.312 110.592-39.936s41.984-62.464 41.984-107.52c0-20.48-1.024-40.96-2.048-59.392-1.024-19.456-4.096-39.936-8.192-62.464s-9.216-43.008-15.36-62.464c-6.144-18.432-14.336-36.864-24.576-55.296s-21.504-33.792-34.816-46.080c-13.312-13.312-29.696-23.552-49.152-30.72-19.456-8.192-39.936-11.264-63.488-11.264-4.096 0-12.288 4.096-24.576 12.288s-26.624 17.408-41.984 26.624c-15.36 10.24-35.84 19.456-61.44 27.648s-51.2 12.288-76.8 12.288c-25.6 0-51.2-4.096-76.8-12.288s-46.080-17.408-61.44-27.648c-15.36-9.216-28.672-18.432-41.984-26.624-12.288-8.192-20.48-12.288-24.576-12.288z"></path>
</svg>
