<?xml version="1.0" encoding="utf-8"?>
<!-- Generated by IcoMoon.io -->
<!DOCTYPE svg PUBLIC "-//W3C//DTD SVG 1.1//EN" "http://www.w3.org/Graphics/SVG/1.1/DTD/svg11.dtd">
<svg version="1.1" xmlns="http://www.w3.org/2000/svg" xmlns:xlink="http://www.w3.org/1999/xlink" width="878" height="1024" viewBox="0 0 878 1024"><g id="icomoon-ignore">
</g>
<path fill="rgb(0, 0, 0)" d="M734.208 419.84q0-16.384-11.264-26.624l-51.2-51.2q-11.264-11.264-25.6-11.264t-26.624 11.264l-232.448 232.448-129.024-129.024q-11.264-11.264-25.6-11.264t-26.624 11.264l-51.2 51.2q-10.24 10.24-10.24 26.624 0 15.36 10.24 25.6l206.848 206.848q10.24 10.24 25.6 10.24t25.6-10.24l310.272-310.272q11.264-10.24 11.264-25.6zM877.568 512q0 119.808-58.368 220.16t-159.744 159.744-220.16 59.392-221.184-59.392-158.72-159.744-59.392-220.16 59.392-220.16 158.72-159.744 221.184-59.392 220.16 59.392 159.744 159.744 58.368 220.16z"></path>
</svg>
