<?xml version="1.0" encoding="utf-8"?>
<!-- Generated by IcoMoon.io -->
<!DOCTYPE svg PUBLIC "-//W3C//DTD SVG 1.1//EN" "http://www.w3.org/Graphics/SVG/1.1/DTD/svg11.dtd">
<svg version="1.1" xmlns="http://www.w3.org/2000/svg" xmlns:xlink="http://www.w3.org/1999/xlink" width="1024" height="1024" viewBox="0 0 1024 1024"><g id="icomoon-ignore">
</g>
<path fill="rgb(0, 0, 0)" d="M1024 405.504v453.632q0 37.888-26.624 64.512t-64.512 27.648h-841.728q-36.864 0-64.512-27.648t-26.624-64.512v-453.632q25.6 28.672 57.344 50.176 206.848 140.288 284.672 196.608 32.768 24.576 52.224 37.888t54.272 27.648 62.464 13.312h2.048q28.672 0 62.464-13.312t54.272-27.648 52.224-37.888q97.28-69.632 284.672-196.608 32.768-22.528 57.344-50.176zM1024 237.568q0 45.056-27.648 86.016t-69.632 70.656q-215.040 149.504-268.288 185.344-5.12 4.096-23.552 17.408t-30.72 22.528-29.696 18.432-33.792 15.36-27.648 5.12h-2.048q-12.288 0-27.648-5.12t-33.792-15.36-29.696-18.432-30.72-22.528-23.552-17.408q-52.224-35.84-150.528-103.424t-116.736-81.92q-35.84-23.552-66.56-65.536t-31.744-78.848q0-44.032 23.552-73.728t67.584-29.696h841.728q36.864 0 63.488 26.624t27.648 64.512z"></path>
</svg>
