<?xml version="1.0" encoding="utf-8"?>
<!-- Generated by IcoMoon.io -->
<!DOCTYPE svg PUBLIC "-//W3C//DTD SVG 1.1//EN" "http://www.w3.org/Graphics/SVG/1.1/DTD/svg11.dtd">
<svg version="1.1" xmlns="http://www.w3.org/2000/svg" xmlns:xlink="http://www.w3.org/1999/xlink" width="1024" height="1024" viewBox="0 0 1024 1024"><g id="icomoon-ignore">
</g>
<path fill="rgb(0, 0, 0)" d="M192.512 63.488c-64.512 0-192.512 192.512-192.512 192.512 0 128 131.072 387.072 256 512s384 256 512 256c0 0 192.512-128 192.512-192.512 0-63.488-192.512-256-256-191.488-64.512 63.488-64.512 128-128 128-64.512 0-128-64.512-192.512-128-63.488-64.512-128-128-128-192.512 0-63.488 64.512-63.488 128-128 64.512-63.488-128-256-191.488-256zM647.168 135.168c-2.048 0-5.12 1.024-7.168 2.048-1.024 2.048-2.048 5.12-2.048 7.168s0 4.096 2.048 6.144l48.128 58.368c2.048 2.048 4.096 4.096 8.192 4.096h174.080v115.712h-58.368c-5.12 0-9.216 2.048-13.312 6.144s-6.144 8.192-6.144 13.312c0 5.12 2.048 9.216 5.12 12.288l97.28 116.736c4.096 5.12 8.192 7.168 14.336 7.168s11.264-2.048 15.36-7.168l97.28-116.736c3.072-3.072 4.096-7.168 4.096-12.288s-2.048-9.216-6.144-13.312c-3.072-4.096-8.192-6.144-13.312-6.144h-58.368v-181.248c0-1.024 0-2.048 0-4.096s-1.024-3.072-1.024-3.072c0-1.024-1.024-2.048-2.048-3.072 0-1.024-1.024-1.024-2.048-2.048-1.024 0-3.072 0-4.096 0h-291.84zM560.128 135.168c-6.144 0-11.264 2.048-15.36 6.144l-97.28 116.736c-3.072 4.096-4.096 8.192-4.096 12.288 0 6.144 2.048 10.24 6.144 14.336 3.072 4.096 8.192 5.12 13.312 5.12h58.368v182.272c0 1.024 0 2.048 0 4.096 0 1.024 1.024 2.048 1.024 3.072s1.024 1.024 2.048 2.048c0 1.024 1.024 2.048 2.048 3.072 1.024 0 3.072 0 4.096 0h291.84c2.048 0 5.12-1.024 7.168-3.072 1.024-2.048 2.048-4.096 2.048-6.144s0-4.096-2.048-7.168l-48.128-58.368c-2.048-2.048-4.096-3.072-8.192-3.072h-174.080v-116.736h58.368c5.12 0 9.216-1.024 13.312-5.12s6.144-8.192 6.144-14.336c0-4.096-2.048-8.192-5.12-12.288l-97.28-116.736c-3.072-4.096-8.192-6.144-14.336-6.144z"></path>
</svg>
